<?xml version="1.0" encoding="UTF-8" standalone="no"?>
<?xml-stylesheet href="fusile.css" type="text/css"?>
<!DOCTYPE svg PUBLIC "-//W3C//DTD SVG 1.1//EN"
 "http://www.w3.org/Graphics/SVG/1.1/DTD/svg11.dtd">
<!-- Generated by graphviz version 2.26.3 (20100126.1600)
 -->
<!-- Title: fusile Pages: 1 -->
<svg width="846pt" height="245pt"
 viewBox="0.00 0.00 846.00 245.00" xmlns="http://www.w3.org/2000/svg" xmlns:xlink="http://www.w3.org/1999/xlink">
<g id="graph1" class="graph" transform="scale(1 1) rotate(0) translate(4 241)">
<title>fusile</title>
<polygon fill="white" stroke="white" points="-4,5 -4,-241 843,-241 843,5 -4,5"/>
<g id="graph2" class="cluster"><title>clusterComponent</title>
<polygon fill="none" stroke="black" points="94,-8 94,-229 754,-229 754,-8 94,-8"/>
<text text-anchor="middle" x="424" y="-212.4" font-family="Times Roman,serif" font-size="14.00">Fusile</text>
</g>
<!-- fs.read -->
<g id="node1" class="node"><title>fs.read</title>
<text text-anchor="middle" x="32" y="-29.9" font-family="Times Roman,serif" font-size="14.00">fs.read</text>
</g>
<!-- transpiler? -->
<g id="node4" class="node"><title>transpiler?</title>
<polygon fill="none" stroke="black" points="191,-52 103.056,-34 191,-16 278.944,-34 191,-52"/>
<text text-anchor="middle" x="191" y="-29.9" font-family="Times Roman,serif" font-size="14.00">transpiler?</text>
</g>
<!-- fs.read&#45;&gt;transpiler? -->
<g id="edge28" class="edge"><title>fs.read&#45;&gt;transpiler?</title>
<path fill="none" stroke="black" d="M63.7939,-34C72.29,-34 81.9397,-34 92.0356,-34"/>
<polygon fill="black" stroke="black" points="92.2541,-37.5001 102.254,-34 92.2541,-30.5001 92.2541,-37.5001"/>
</g>
<!-- data -->
<g id="node2" class="node"><title>data</title>
<text text-anchor="middle" x="811" y="-70.9" font-family="Times Roman,serif" font-size="14.00">data</text>
</g>
<!-- cached? -->
<g id="node5" class="node"><title>cached?</title>
<polygon fill="none" stroke="black" points="191,-124 121.227,-106 191,-88 260.773,-106 191,-124"/>
<text text-anchor="middle" x="191" y="-101.9" font-family="Times Roman,serif" font-size="14.00">cached?</text>
</g>
<!-- transpiler?&#45;&gt;cached? -->
<g id="edge8" class="edge"><title>transpiler?&#45;&gt;cached?</title>
<path fill="none" stroke="black" d="M191,-77.5726C191,-69.1084 191,-60.0593 191,-52.4133"/>
<polygon fill="black" stroke="black" points="187.5,-77.8313 191,-87.8314 194.5,-77.8314 187.5,-77.8313"/>
<text text-anchor="middle" x="202" y="-65.9" font-family="Times Roman,serif" font-size="14.00">Yes</text>
</g>
<!-- Source -->
<g id="node9" class="node"><title>Source</title>
<ellipse fill="none" stroke="black" cx="383" cy="-34" rx="43.9728" ry="18"/>
<text text-anchor="middle" x="383" y="-29.9" font-family="Times Roman,serif" font-size="14.00">Source</text>
</g>
<!-- transpiler?&#45;&gt;Source -->
<g id="edge6" class="edge"><title>transpiler?&#45;&gt;Source</title>
<path fill="none" stroke="black" d="M279.694,-34C296.219,-34 313.035,-34 328.168,-34"/>
<polygon fill="black" stroke="black" points="328.351,-37.5001 338.351,-34 328.351,-30.5001 328.351,-37.5001"/>
<text text-anchor="middle" x="309" y="-38.4" font-family="Times Roman,serif" font-size="14.00">No</text>
</g>
<!-- Transpiler -->
<g id="node7" class="node"><title>Transpiler</title>
<ellipse fill="none" stroke="black" cx="191" cy="-178" rx="57.1737" ry="18"/>
<text text-anchor="middle" x="191" y="-173.9" font-family="Times Roman,serif" font-size="14.00">Transpiler</text>
</g>
<!-- cached?&#45;&gt;Transpiler -->
<g id="edge10" class="edge"><title>cached?&#45;&gt;Transpiler</title>
<path fill="none" stroke="black" d="M191,-149.573C191,-141.108 191,-132.059 191,-124.413"/>
<polygon fill="black" stroke="black" points="187.5,-149.831 191,-159.831 194.5,-149.831 187.5,-149.831"/>
<text text-anchor="middle" x="200.5" y="-137.9" font-family="Times Roman,serif" font-size="14.00">No</text>
</g>
<!-- Cache -->
<g id="node8" class="node"><title>Cache</title>
<ellipse fill="none" stroke="black" cx="383" cy="-129" rx="40.9981" ry="18"/>
<text text-anchor="middle" x="383" y="-124.9" font-family="Times Roman,serif" font-size="14.00">Cache</text>
</g>
<!-- cached?&#45;&gt;Cache -->
<g id="edge12" class="edge"><title>cached?&#45;&gt;Cache</title>
<path fill="none" stroke="black" d="M238.954,-111.745C267.768,-115.196 304.362,-119.58 333.456,-123.065"/>
<polygon fill="black" stroke="black" points="333.063,-126.543 343.408,-124.257 333.896,-119.593 333.063,-126.543"/>
<text text-anchor="middle" x="309" y="-124.4" font-family="Times Roman,serif" font-size="14.00">Yes</text>
</g>
<!-- CSS? -->
<g id="node6" class="node"><title>CSS?</title>
<polygon fill="none" stroke="black" points="537,-52 485.899,-34 537,-16 588.101,-34 537,-52"/>
<text text-anchor="middle" x="537" y="-29.9" font-family="Times Roman,serif" font-size="14.00">CSS?</text>
</g>
<!-- Autoprefixer -->
<g id="node10" class="node"><title>Autoprefixer</title>
<ellipse fill="none" stroke="black" cx="537" cy="-106" rx="70.878" ry="18"/>
<text text-anchor="middle" x="537" y="-101.9" font-family="Times Roman,serif" font-size="14.00">Autoprefixer</text>
</g>
<!-- CSS?&#45;&gt;Autoprefixer -->
<g id="edge22" class="edge"><title>CSS?&#45;&gt;Autoprefixer</title>
<path fill="none" stroke="black" d="M537,-77.5726C537,-69.1084 537,-60.0593 537,-52.4133"/>
<polygon fill="black" stroke="black" points="533.5,-77.8313 537,-87.8314 540.5,-77.8314 533.5,-77.8313"/>
<text text-anchor="middle" x="548" y="-65.9" font-family="Times Roman,serif" font-size="14.00">Yes</text>
</g>
<!-- Buffer -->
<g id="node11" class="node"><title>Buffer</title>
<ellipse fill="none" stroke="black" cx="705" cy="-75" rx="40.9981" ry="18"/>
<text text-anchor="middle" x="705" y="-70.9" font-family="Times Roman,serif" font-size="14.00">Buffer</text>
</g>
<!-- CSS?&#45;&gt;Buffer -->
<g id="edge20" class="edge"><title>CSS?&#45;&gt;Buffer</title>
<path fill="none" stroke="black" d="M567.424,-41.4248C592.968,-47.6588 629.857,-56.6615 659.008,-63.7757"/>
<polygon fill="black" stroke="black" points="658.42,-67.2349 668.965,-66.2057 660.08,-60.4345 658.42,-67.2349"/>
<text text-anchor="middle" x="636" y="-65.4" font-family="Times Roman,serif" font-size="14.00">No</text>
</g>
<!-- Transpiler&#45;&gt;Cache -->
<g id="edge14" class="edge"><title>Transpiler&#45;&gt;Cache</title>
<path fill="none" stroke="black" d="M236.015,-166.512C266.587,-158.71 306.876,-148.427 337.541,-140.601"/>
<polygon fill="black" stroke="black" points="338.72,-143.913 347.544,-138.049 336.989,-137.13 338.72,-143.913"/>
</g>
<!-- Cache&#45;&gt;Source -->
<g id="edge16" class="edge"><title>Cache&#45;&gt;Source</title>
<path fill="none" stroke="black" d="M383,-110.947C383,-103.835 383,-97.3333 383,-97.3333 383,-97.3333 383,-65.6667 383,-65.6667 383,-65.6667 383,-64.4222 383,-62.4266"/>
<polygon fill="black" stroke="black" points="386.5,-62.0533 383,-52.0534 379.5,-62.0534 386.5,-62.0533"/>
</g>
<!-- Source&#45;&gt;CSS? -->
<g id="edge18" class="edge"><title>Source&#45;&gt;CSS?</title>
<path fill="none" stroke="black" d="M427.543,-34C442.482,-34 459.415,-34 475.421,-34"/>
<polygon fill="black" stroke="black" points="475.775,-37.5001 485.775,-34 475.775,-30.5001 475.775,-37.5001"/>
</g>
<!-- Autoprefixer&#45;&gt;Buffer -->
<g id="edge24" class="edge"><title>Autoprefixer&#45;&gt;Buffer</title>
<path fill="none" stroke="black" d="M594.816,-95.3316C615.184,-91.5732 637.834,-87.3936 657.276,-83.8062"/>
<polygon fill="black" stroke="black" points="657.922,-87.2462 667.121,-81.9896 656.652,-80.3624 657.922,-87.2462"/>
</g>
<!-- Buffer&#45;&gt;data -->
<g id="edge26" class="edge"><title>Buffer&#45;&gt;data</title>
<path fill="none" stroke="black" d="M746.286,-75C755.311,-75 764.813,-75 773.672,-75"/>
<polygon fill="black" stroke="black" points="773.711,-78.5001 783.711,-75 773.711,-71.5001 773.711,-78.5001"/>
</g>
</g>
</svg>
