<?xml version="1.0" encoding="UTF-8" standalone="no"?>
<?xml-stylesheet href="fusile.css" type="text/css"?>
<!DOCTYPE svg PUBLIC "-//W3C//DTD SVG 1.1//EN"
 "http://www.w3.org/Graphics/SVG/1.1/DTD/svg11.dtd">
<!-- Generated by graphviz version 2.26.3 (20100126.1600)
 -->
<!-- Title: fusile Pages: 1 -->
<svg width="970pt" height="245pt"
 viewBox="0.00 0.00 970.00 245.00" xmlns="http://www.w3.org/2000/svg" xmlns:xlink="http://www.w3.org/1999/xlink">
<g id="graph1" class="graph" transform="scale(1 1) rotate(0) translate(4 241)">
<title>fusile</title>
<polygon fill="white" stroke="white" points="-4,5 -4,-241 967,-241 967,5 -4,5"/>
<g id="graph2" class="cluster"><title>clusterComponent</title>
<polygon fill="none" stroke="black" points="94,-8 94,-229 878,-229 878,-8 94,-8"/>
<text text-anchor="middle" x="486" y="-212.4" font-family="Times Roman,serif" font-size="14.00">Fusile</text>
</g>
<!-- fs.read -->
<g id="node1" class="node"><title>fs.read</title>
<text text-anchor="middle" x="32" y="-29.9" font-family="Times Roman,serif" font-size="14.00">fs.read</text>
</g>
<!-- transpiler? -->
<g id="node4" class="node"><title>transpiler?</title>
<polygon fill="none" stroke="black" points="191,-52 103.056,-34 191,-16 278.944,-34 191,-52"/>
<text text-anchor="middle" x="191" y="-29.9" font-family="Times Roman,serif" font-size="14.00">transpiler?</text>
</g>
<!-- fs.read&#45;&gt;transpiler? -->
<g id="edge28" class="edge"><title>fs.read&#45;&gt;transpiler?</title>
<path fill="none" stroke="black" d="M63.7939,-34C72.29,-34 81.9397,-34 92.0356,-34"/>
<polygon fill="black" stroke="black" points="92.2541,-37.5001 102.254,-34 92.2541,-30.5001 92.2541,-37.5001"/>
</g>
<!-- data -->
<g id="node2" class="node"><title>data</title>
<text text-anchor="middle" x="935" y="-70.9" font-family="Times Roman,serif" font-size="14.00">data</text>
</g>
<!-- cached? -->
<g id="node5" class="node"><title>cached?</title>
<polygon fill="none" stroke="black" points="191,-124 121.227,-106 191,-88 260.773,-106 191,-124"/>
<text text-anchor="middle" x="191" y="-101.9" font-family="Times Roman,serif" font-size="14.00">cached?</text>
</g>
<!-- transpiler?&#45;&gt;cached? -->
<g id="edge8" class="edge"><title>transpiler?&#45;&gt;cached?</title>
<path fill="none" stroke="black" d="M191,-77.5726C191,-69.1084 191,-60.0593 191,-52.4133"/>
<polygon fill="black" stroke="black" points="187.5,-77.8313 191,-87.8314 194.5,-77.8314 187.5,-77.8313"/>
<text text-anchor="middle" x="202" y="-65.9" font-family="Times Roman,serif" font-size="14.00">Yes</text>
</g>
<!-- Response -->
<g id="node9" class="node"><title>Response</title>
<ellipse fill="none" stroke="black" cx="395" cy="-34" rx="55.7874" ry="18"/>
<text text-anchor="middle" x="395" y="-29.9" font-family="Times Roman,serif" font-size="14.00">Response</text>
</g>
<!-- transpiler?&#45;&gt;Response -->
<g id="edge6" class="edge"><title>transpiler?&#45;&gt;Response</title>
<path fill="none" stroke="black" d="M279.587,-34C295.905,-34 312.69,-34 328.23,-34"/>
<polygon fill="black" stroke="black" points="328.245,-37.5001 338.245,-34 328.245,-30.5001 328.245,-37.5001"/>
<text text-anchor="middle" x="309" y="-38.4" font-family="Times Roman,serif" font-size="14.00">No</text>
</g>
<!-- Transpiler -->
<g id="node7" class="node"><title>Transpiler</title>
<ellipse fill="none" stroke="black" cx="191" cy="-178" rx="57.1737" ry="18"/>
<text text-anchor="middle" x="191" y="-173.9" font-family="Times Roman,serif" font-size="14.00">Transpiler</text>
</g>
<!-- cached?&#45;&gt;Transpiler -->
<g id="edge10" class="edge"><title>cached?&#45;&gt;Transpiler</title>
<path fill="none" stroke="black" d="M191,-149.573C191,-141.108 191,-132.059 191,-124.413"/>
<polygon fill="black" stroke="black" points="187.5,-149.831 191,-159.831 194.5,-149.831 187.5,-149.831"/>
<text text-anchor="middle" x="200.5" y="-137.9" font-family="Times Roman,serif" font-size="14.00">No</text>
</g>
<!-- Cache -->
<g id="node8" class="node"><title>Cache</title>
<ellipse fill="none" stroke="black" cx="395" cy="-129" rx="40.9981" ry="18"/>
<text text-anchor="middle" x="395" y="-124.9" font-family="Times Roman,serif" font-size="14.00">Cache</text>
</g>
<!-- cached?&#45;&gt;Cache -->
<g id="edge12" class="edge"><title>cached?&#45;&gt;Cache</title>
<path fill="none" stroke="black" d="M239.604,-111.48C271.4,-115.065 312.836,-119.736 344.924,-123.354"/>
<polygon fill="black" stroke="black" points="344.66,-126.847 354.989,-124.489 345.445,-119.891 344.66,-126.847"/>
<text text-anchor="middle" x="309" y="-124.4" font-family="Times Roman,serif" font-size="14.00">Yes</text>
</g>
<!-- CSS? -->
<g id="node6" class="node"><title>CSS?</title>
<polygon fill="none" stroke="black" points="561,-52 509.899,-34 561,-16 612.101,-34 561,-52"/>
<text text-anchor="middle" x="561" y="-29.9" font-family="Times Roman,serif" font-size="14.00">CSS?</text>
</g>
<!-- Autoprefixer -->
<g id="node10" class="node"><title>Autoprefixer</title>
<ellipse fill="none" stroke="black" cx="561" cy="-106" rx="70.878" ry="18"/>
<text text-anchor="middle" x="561" y="-101.9" font-family="Times Roman,serif" font-size="14.00">Autoprefixer</text>
</g>
<!-- CSS?&#45;&gt;Autoprefixer -->
<g id="edge22" class="edge"><title>CSS?&#45;&gt;Autoprefixer</title>
<path fill="none" stroke="black" d="M561,-77.5726C561,-69.1084 561,-60.0593 561,-52.4133"/>
<polygon fill="black" stroke="black" points="557.5,-77.8313 561,-87.8314 564.5,-77.8314 557.5,-77.8313"/>
<text text-anchor="middle" x="572" y="-65.9" font-family="Times Roman,serif" font-size="14.00">Yes</text>
</g>
<!-- ResponseStream -->
<g id="node11" class="node"><title>ResponseStream</title>
<ellipse fill="none" stroke="black" cx="779" cy="-75" rx="91.0296" ry="18"/>
<text text-anchor="middle" x="779" y="-70.9" font-family="Times Roman,serif" font-size="14.00">ResponseStream</text>
</g>
<!-- CSS?&#45;&gt;ResponseStream -->
<g id="edge20" class="edge"><title>CSS?&#45;&gt;ResponseStream</title>
<path fill="none" stroke="black" d="M594.585,-40.3164C623.297,-45.7164 665.702,-53.6917 702.612,-60.6335"/>
<polygon fill="black" stroke="black" points="702.387,-64.1523 712.861,-62.5611 703.68,-57.2729 702.387,-64.1523"/>
<text text-anchor="middle" x="660" y="-59.4" font-family="Times Roman,serif" font-size="14.00">No</text>
</g>
<!-- Transpiler&#45;&gt;Cache -->
<g id="edge14" class="edge"><title>Transpiler&#45;&gt;Cache</title>
<path fill="none" stroke="black" d="M236.782,-167.003C270.21,-158.974 315.354,-148.131 348.864,-140.082"/>
<polygon fill="black" stroke="black" points="349.959,-143.418 358.865,-137.68 348.324,-136.612 349.959,-143.418"/>
</g>
<!-- Cache&#45;&gt;Response -->
<g id="edge16" class="edge"><title>Cache&#45;&gt;Response</title>
<path fill="none" stroke="black" d="M395,-110.947C395,-103.835 395,-97.3333 395,-97.3333 395,-97.3333 395,-65.6667 395,-65.6667 395,-65.6667 395,-64.4222 395,-62.4266"/>
<polygon fill="black" stroke="black" points="398.5,-62.0533 395,-52.0534 391.5,-62.0534 398.5,-62.0533"/>
</g>
<!-- Response&#45;&gt;CSS? -->
<g id="edge18" class="edge"><title>Response&#45;&gt;CSS?</title>
<path fill="none" stroke="black" d="M451.663,-34C467.15,-34 484.001,-34 499.732,-34"/>
<polygon fill="black" stroke="black" points="499.882,-37.5001 509.882,-34 499.882,-30.5001 499.882,-37.5001"/>
</g>
<!-- Autoprefixer&#45;&gt;ResponseStream -->
<g id="edge24" class="edge"><title>Autoprefixer&#45;&gt;ResponseStream</title>
<path fill="none" stroke="black" d="M623.178,-97.1581C645.422,-93.995 670.878,-90.3751 694.677,-86.9908"/>
<polygon fill="black" stroke="black" points="695.354,-90.43 704.761,-85.5569 694.368,-83.4997 695.354,-90.43"/>
</g>
<!-- ResponseStream&#45;&gt;data -->
<g id="edge26" class="edge"><title>ResponseStream&#45;&gt;data</title>
<path fill="none" stroke="black" d="M870.197,-75C879.855,-75 889.234,-75 897.721,-75"/>
<polygon fill="black" stroke="black" points="897.945,-78.5001 907.945,-75 897.945,-71.5001 897.945,-78.5001"/>
</g>
</g>
</svg>
